<svg xmlns="http://www.w3.org/2000/svg" xmlns:xlink="http://www.w3.org/1999/xlink" version="1.1"><metadata>Created by FontForge 20170731 at Wed Aug 20 10:52:21 2008 By Aleksey,,, http://www.fatorcaos.com.br</metadata><defs><font id="PerfectDOSVGA437" horiz-adv-x="2304"><font-face x-height="1792" ascent="3072" bbox="0 -1024 2304 3072" cap-height="2560" descent="-1024" font-family="Perfect DOS VGA 437" font-stretch="normal" font-weight="400" panose-1="2 0 0 9 0 0 0 0 0 0" underline-position="-512" underline-thickness="256" unicode-range="U+0001-2122" units-per-em="4096"/><glyph glyph-name=".notdef"/><glyph glyph-name=".null" horiz-adv-x="0"/><glyph d="M1024 2048h512v256h-512v-256zM1024 1792v-1536h-256v-256h-768v512h256v256h256v1792h1536v-768h-1024z" glyph-name="uni000D"/><glyph d="M1280 2048h256v-256h-256v256zM512 2048h256v-256h-256v256zM512 1280h1024v-256h-256v-256h-512v256h-256v256zM0 2304h256v-2048h1536v-256h-1536v256h-256v2048zM1792 2304h-1534l-2 2v254h1536v-256h256v-2048h-256v2048z" glyph-name="uni0001"/><glyph d="M1536 1792v256h-256v-256h256zM768 1792v256h-256v-256h256zM1280 768v256h256v256h-1024v-256h256v-256h512zM0 2304h256v256h1536v-256h256v-2048h-256v-256h-1536v256h-256v2048z" glyph-name="uni0002"/><glyph d="M512 512h-256v256h-256v1024h256v256h512v-256h256v256h512v-256h256v-1024h-256v-256h-256v-256h-256v-256h-256v256h-256v256z" glyph-name="uni0003"/><glyph d="M1536 768h-256v-256h-256v-256h-256v256h-256v256h-256v256h-256v256h256v256h256v256h256v256h256v-256h256v-256h256v-256h256v-256h-256v-256z" glyph-name="uni0004"/><glyph d="M1280 256h256v-256h-1024v256h256v510l2 2h510v-512zM768 2304h512v-256h256v-512h512v-768h-768v768h-512v-768h-768v768h512v512h256v256z" glyph-name="uni0005"/><glyph d="M0 1536h256v256h256v256h256v256h512v-256h256v-256h256v-256h256v-512h-256v-256h-512v-512h256v-256h-1024v256h256v512h-512v256h-256v512z" glyph-name="uni0006"/><glyph d="M512 1280h256v256h512v-256h256v-512h-256v-256h-512v256h-256v512z" glyph-name="uni0007"/><glyph d="M1280 512v256h256v512h-256v256h-512v-256h-256v-512h256v-256h512zM0 3072h2048v-4096h-2048v4096z" glyph-name="uni0008"/><glyph d="M768 512h512v256h256v512h-256v256h-512v-256h-256v-512h256v-256zM256 1536h256v256h1024v-256h256v-1024h-256v-256h-1024v256h-256v1024z" glyph-name="uni0009"/><glyph d="M1280 512h-512v256h-256v512h256v256h512v-256h256v-512h-256v-256zM1536 256v256h256v1024h-256v256h-1024v-256h-256v-1024h256v-256h1024zM0 3072h2048v-4096h-2048v4096z" glyph-name="uni000A"/><glyph d="M1024 1280h-512v-1024h512v1024zM1536 2048h-256v-256h-256v-256h256v-256h256v-1024h-256v-256h-1024v256h-256v1024h256v256h256v256h256v256h256v256h-256v256h1024v-1024h-256v512z" glyph-name="uni000B"/><glyph d="M1024 2304h-512v-1024h512v1024zM0 768h512v256h-256v256h-256v1024h256v256h1024v-256h256v-1024h-256v-256h-256v-256h512v-256h-512v-512h-512v512h-512v256z" glyph-name="uni000C"/><glyph d="M768 2048h768v256h-768v-256zM1280 1024h256v768h-768v-1536h-256v-256h-512v768h256v1792h1792v-2048h-256v-256h-512v768z" glyph-name="uni000E"/><glyph d="M0 768h512v-256h-512v256zM768 1024h512v256h-512v-256zM1536 1792h512v-256h-512v256zM1536 768h-256v-768h-512v768h-256v256h-512v256h512v256h-512v256h512v-256h256v768h512v-768h256v-256h512v-256h-512v-256h512v-256h-512v256z" glyph-name="uni000F"/><glyph d="M1280 1024h-256v-256h-256v-256h-256v-256h-256v-256h-256v2816h256v-256h256v-256h256v-256h256v-256h256v-256h512v-256h-512v-256z" glyph-name="uni0010"/><glyph d="M0 1536h512v256h256v256h256v256h256v256h256v256h256v-2816h-256v256h-256v256h-256v256h-256v256h-256v256h-512v256z" glyph-name="uni0011"/><glyph d="M768 512h-256v256h-256v256h512v768h-512v256h256v256h256v256h512v-256h256v-256h256v-256h-512v-768h512v-256h-256v-256h-256v-256h-512v256z" glyph-name="uni0012"/><glyph d="M1280 512h512v-512h-512v512zM256 512h512v-512h-512v512zM1280 2560h512v-1792h-512v1792zM256 2560h512v-1792h-512v1792z" glyph-name="uni0013"/><glyph d="M512 1536h256v768h-256v-768zM0 2304h256v256h1792v-2560h-512v2304h-256v-2304h-512v1280h-512v256h-256v768z" glyph-name="uni0014"/><glyph d="M1024 1024h256v512h-256v256h-256v-256h-256v-512h256v-256h256v256zM0 256h512v-256h768v256h-256v256h-512v256h-256v256h-256v512h256v256h256v256h-256v256h-256v256h256v256h1280v-256h256v-256h-512v256h-768v-256h256v-256h512v-256h256v-256h256v-512h-256v-256 h-256v-256h256v-256h256v-256h-256v-256h-1280v256h-256v256z" glyph-name="uni0015"/><glyph d="M0 1024h1792v-1024h-1792v1024z" glyph-name="uni0016"/><glyph d="M256 2048h256v256h256v256h512v-256h256v-256h256v-256h-512v-768h512v-256h-256v-256h-256v-256h512v-256h-1536v256h512v256h-256v256h-256v256h512v768h-512v256z" glyph-name="uni0017"/><glyph d="M256 2048h256v256h256v256h512v-256h256v-256h256v-256h-512v-1792h-512v1792h-512v256z" glyph-name="uni0018"/><glyph d="M256 768h512v1792h512v-1792h512v-256h-256v-256h-256v-256h-512v256h-256v256h-256v256z" glyph-name="uni0019"/><glyph d="M768 1792h512v-256h256v-256h256v-256h-256v-256h-256v-256h-512v256h256v256h-1024v256h1024v256h-256v256z" glyph-name="uni001A"/><glyph d="M512 768h-256v256h-256v256h256v256h256v256h512v-256h-256v-256h1024v-256h-1024v-256h256v-256h-512v256z" glyph-name="uni001B"/><glyph d="M0 1536h512v-768h1280v-256h-1792v1024z" glyph-name="uni001C"/><glyph d="M1536 768h-256v-256h-256v512h-256v-512h-256v256h-256v256h-256v256h256v256h256v256h256v-512h256v512h256v-256h256v-256h256v-256h-256v-256z" glyph-name="uni001D"/><glyph d="M0 768h256v512h256v512h256v256h256v-256h256v-512h256v-512h256v-512h-1792v512z" glyph-name="uni001E"/><glyph d="M1536 1024h-256v-512h-256v-256h-256v256h-256v512h-256v512h-256v512h1792v-512h-256v-512z" glyph-name="uni001F"/><glyph glyph-name="visiblespace"/><glyph d="M768 512h512v-512h-512v512zM512 2304h256v256h512v-256h256v-768h-256v-768h-512v768h-256v768z" glyph-name="exclam" unicode="!"/><glyph d="M1536 1792h-256v1024h512v-768h-256v-256zM512 2048h-256v768h512v-1024h-256v256z" glyph-name="quotedbl" unicode="&quot;"/><glyph d="M1024 768v768h-256v-768h256zM256 2304h512v-512h256v512h512v-512h256v-256h-256v-768h256v-256h-256v-512h-512v512h-256v-512h-512v512h-256v256h256v768h-256v256h256v512z" glyph-name="numbersign" unicode="#"/><glyph d="M1280 2304h-768v-768h1024v-256h256v-1024h-256v-256h-256v-512h-512v512h-512v256h-256v512h256v-256h256v-256h768v1024h-1024v256h-256v768h256v256h512v512h512v-512h256v-256h256v-512h-256v256h-256v256z" glyph-name="dollar" unicode="$"/><glyph d="M1280 512h512v-512h-512v512zM0 2048h512v-512h-512v512zM1536 1280h-256v-256h-256v-256h-256v-256h-256v-256h-256v-256h-256v512h256v256h256v256h256v256h256v256h256v256h256v256h256v-512h-256v-256z" glyph-name="uni0025" unicode="%"/><glyph d="M1024 2304h-256v-512h256v512zM1280 1534l2 2h510v-256h-256v-1024h256v-256h-512v256h-256v768h-256v256h-256v-1024h510l2 -5v-251h-768v256h-256v1024h256v256h256v256h-256v512h256v256h768v-256h256v-512h-256v-256h-256v-256h256v254z" glyph-name="ampersand" unicode="&amp;"/><glyph d="M256 2048h256v768h512v-768h-256v-256h-512v256z" glyph-name="quotesingle" unicode="'"/><glyph d="M512 2048h256v256h256v256h512v-256h-256v-256h-256v-1536h256v-256h256v-256h-512v256h-256v256h-256v1536z" glyph-name="parenleft" unicode="("/><glyph d="M512 256h256v256h256v1536h-256v256h-256v256h512v-256h256v-256h256v-1536h-256v-256h-256v-256h-512v256z" glyph-name="parenright" unicode=")"/><glyph d="M256 1792h512v-256h512v256h512v-256h-256v-256h512v-256h-512v-256h256v-256h-512v256h-512v-256h-512v256h256v256h-512v256h512v256h-256v256z" glyph-name="asterisk" unicode="*"/><glyph d="M256 1280h512v512h512v-512h512v-256h-512v-512h-512v512h-512v256z" glyph-name="plus" unicode="+"/><glyph d="M512 0h256v768h512v-768h-256v-256h-512v256z" glyph-name="comma" unicode=","/><glyph d="M0 1280h1792v-256h-1792v256z" glyph-name="hyphen" unicode="-"/><glyph d="M768 512h512v-512h-512v512z" glyph-name="period" unicode="."/><glyph d="M1536 1280h-256v-256h-256v-256h-256v-256h-256v-256h-256v-256h-256v512h256v256h256v256h256v256h256v256h256v256h256v256h256v-512h-256v-256z" glyph-name="slash" unicode="/"/><glyph d="M768 1536h256v-512h-256v512zM1024 512h256v1536h-256v256h-256v-256h-256v-1536h256v-256h256v256zM512 256h-256v256h-256v1536h256v256h256v256h768v-256h256v-256h256v-1536h-256v-256h-256v-256h-768v256z" glyph-name="zero" unicode="0"/><glyph d="M256 2048h256v256h256v256h512v-2304h512v-256h-1536v256h512v1536h-512v256z" glyph-name="one" unicode="1"/><glyph d="M0 768h256v256h256v256h256v256h256v256h256v512h-768v-256h-512v256h256v256h1280v-256h256v-512h-256v-256h-256v-256h-256v-256h-256v-256h-256v-512h768v256h512v-512h-1792v768z" glyph-name="two" unicode="2"/><glyph d="M512 1536h768v768h-768v-256h-512v256h256v256h1280v-256h256v-768h-256v-256h256v-1024h-256v-256h-1280v256h-256v256h512v-256h768v1024h-768v256z" glyph-name="three" unicode="3"/><glyph d="M512 1280h512v512h-256v-256h-256v-256zM1792 1280v-256h-256v-768h256v-256h-1024v256h256v768h-1024v512h256v256h256v256h256v256h256v256h512v-1280h256z" glyph-name="four" unicode="4"/><glyph d="M512 1536h1024v-256h256v-1024h-256v-256h-1280v256h-256v256h512v-256h768v1024h-1280v1280h1792v-256h-1280v-768z" glyph-name="five" unicode="5"/><glyph d="M1280 1280h-768v-1024h768v1024zM256 2304h256v256h768v-256h-512v-256h-256v-512h1024v-256h256v-1024h-256v-256h-1280v256h-256v1792h256v256z" glyph-name="six" unicode="6"/><glyph d="M512 1024h256v256h256v256h256v768h-768v-256h-512v512h1792v-1024h-256v-256h-256v-256h-256v-1024h-512v1024z" glyph-name="seven" unicode="7"/><glyph d="M1280 2304h-768v-768h768v768zM1280 1280h-768v-1024h768v1024zM0 1280h256v256h-256v768h256v256h1280v-256h256v-768h-256v-256h256v-1024h-256v-256h-1280v256h-256v1024z" glyph-name="eight" unicode="8"/><glyph d="M256 256h1024v-256h-1024v256zM512 1536h768v768h-768v-768zM1024 512h256v768h-1024v256h-256v768h256v256h1280v-256h256v-1792h-256v-256h-512v256z" glyph-name="nine" unicode="9"/><glyph d="M768 768h512v-512h-512v512zM768 2048h512v-512h-512v512z" glyph-name="colon" unicode=":"/><glyph d="M768 2048h512v-512h-512v512zM768 768h512v-512h-256v-256h-512v256h256v512z" glyph-name="semicolon" unicode=";"/><glyph d="M1280 2304h512v-256h-256v-256h-256v-256h-256v-256h-256v-256h256v-256h256v-256h256v-256h256v-256h-512v256h-256v256h-256v256h-256v256h-256v256h256v256h256v256h256v256h256v256z" glyph-name="less" unicode="&lt;"/><glyph d="M256 1792h1536v-256h-1536v256zM256 1024h1536v-256h-1536v256z" glyph-name="equal" unicode="="/><glyph d="M256 2304h512v-256h256v-256h256v-256h256v-256h256v-256h-256v-256h-256v-256h-256v-256h-256v-256h-512v256h256v256h256v256h256v256h256v256h-256v256h-256v256h-256v256h-256v256z" glyph-name="greater" unicode="&gt;"/><glyph d="M768 512h512v-512h-512v512zM768 1536h256v256h256v512h-768v-512h-512v512h256v256h1280v-256h256v-512h-256v-256h-256v-768h-512v768z" glyph-name="question" unicode="?"/><glyph d="M768 1536h512v512h-768v-1792h1024v-256h-1280v256h-256v1792h256v256h1280v-256h256v-1280h-256v-256h-768v1024z" glyph-name="at" unicode="@"/><glyph d="M1024 2048h-256v-256h-256v-512h768v512h-256v256zM1280 0v1024h-768v-1024h-512v1792h256v256h256v256h256v256h256v-256h256v-256h256v-256h256v-1792h-512z" glyph-name="A" unicode="A"/><glyph d="M768 1536h512v768h-512v-768zM1280 1280h-512v-1024h512v1024zM0 256h256v2048h-256v256h1536v-256h256v-768h-256v-256h256v-1024h-256v-256h-1536v256z" glyph-name="B" unicode="B"/><glyph d="M1280 2304h-512v-256h-256v-1536h256v-256h512v256h256v256h256v-512h-256v-256h-1024v256h-256v256h-256v1536h256v256h256v256h1024v-256h256v-512h-256v256h-256v256z" glyph-name="C" unicode="C"/><glyph d="M1280 2048h-256v256h-256v-2048h256v256h256v1536zM1280 256v-256h-1280v256h256v2048h-256v256h1280v-256h256v-256h256v-1536h-256v-256h-256z" glyph-name="D" unicode="D"/><glyph d="M1024 1280h-256v-1024h512v256h256v256h256v-768h-1792v256h256v2048h-256v256h1792v-768h-256v256h-256v256h-512v-768h256v256h256v-768h-256v256z" glyph-name="E" unicode="E"/><glyph d="M1536 2048h-256v256h-512v-768h256v256h256v-768h-256v256h-256v-1024h256v-256h-1024v256h256v2048h-256v256h1792v-768h-256v256z" glyph-name="F" unicode="F"/><glyph d="M768 1280h1024v-1280h-256v256h-256v768h-512v256zM1280 2304h-512v-256h-256v-1536h256v-256h512v-256h-768v256h-256v256h-256v1536h256v256h256v256h1024v-256h256v-512h-256v256h-256v256z" glyph-name="G" unicode="G"/><glyph d="M1280 1280h-768v-1280h-512v2560h512v-1024h768v1024h512v-2560h-512v1280z" glyph-name="H" unicode="H"/><glyph d="M512 2560h1024v-256h-256v-2048h256v-256h-1024v256h256v2048h-256v256z" glyph-name="I" unicode="I"/><glyph d="M768 2560h1024v-256h-256v-2048h-256v-256h-1024v256h-256v768h512v-768h512v2048h-256v256z" glyph-name="J" unicode="J"/><glyph d="M1536 1536h-256v-512h256v-256h256v-768h-512v768h-256v256h-256v-1024h-768v256h256v2048h-256v256h768v-1024h256v256h256v768h512v-768h-256v-256z" glyph-name="K" unicode="K"/><glyph d="M768 256h512v256h256v256h256v-768h-1792v256h256v2048h-256v256h768h256v-256h-256v-2048z" glyph-name="L" unicode="L"/><glyph d="M1024 1280h-256v256h-256v-1536h-512v2560h512v-256h256v-256h256v256h256v256h512v-2560h-512v1536h-256v-256z" glyph-name="M" unicode="M"/><glyph d="M1024 1280h-256v256h-256v-1536h-512v2560h512v-256h256v-256h256v-256h256v768h512v-2560h-512v1024h-256v256z" glyph-name="N" unicode="N"/><glyph d="M1280 2304h-768v-2048h768v2048zM0 2304h256v256h1280v-256h256v-2048h-256v-256h-1280v256h-256v2048z" glyph-name="O" unicode="O"/><glyph d="M1280 2304h-512v-768h512v768zM768 256h256v-256h-1024v256h256v2048h-256v256h1536v-256h256v-768h-256v-256h-768v-1024z" glyph-name="P" unicode="P"/><glyph d="M1024 512h256v1792h-768v-2048h256v512h256v-256zM1024 0h-768v256h-256v2048h256v256h1280v-256h256v-2048h-256v-512h256v-256h-768v512z" glyph-name="Q" unicode="Q"/><glyph d="M1280 2304h-512v-768h512v768zM1280 1024h-256v256h-256v-1280h-768v256h256v2048h-256v256h1536v-256h256v-768h-256v-512h256v-1024h-512v1024z" glyph-name="R" unicode="R"/><glyph d="M0 768h512v-512h768v768h-256v256h-512v256h-256v256h-256v512h256v256h1280v-256h256v-512h-512v512h-768v-512h256v-256h512v-256h256v-256h256v-768h-256v-256h-1280v256h-256v512z" glyph-name="S" unicode="S"/><glyph d="M512 256h256v1792h-256v-256h-256v768h1536v-768h-256v256h-256v-1792h256v-256h-1024v256z" glyph-name="T" unicode="T"/><glyph d="M0 2560h512v-2304h768v2304h512v-2304h-256v-256h-1280v256h-256v2304z" glyph-name="U" unicode="U"/><glyph d="M768 256h-256v256h-256v256h-256v1792h512v-1792h256v-256h256v256h256v1792h512v-1792h-256v-256h-256v-256h-256v-256h-256v256z" glyph-name="V" unicode="V"/><glyph d="M768 0h-512v256h-256v2304h512v-1792h256v768h256v-768h256v1792h512v-2304h-256v-256h-512v512h-256v-512z" glyph-name="W" unicode="W"/><glyph d="M512 1536h-256v512h-256v512h512v-512h256v-256h256v256h256v512h512v-512h-256v-512h-256v-512h256v-512h256v-512h-512v512h-256v256h-256v-256h-256v-512h-512v512h256v512h256v512z" glyph-name="X" unicode="X"/><glyph d="M512 256h256v1024h-256v256h-256v1024h512v-1024h512v1024h512v-1024h-256v-256h-256v-1024h256v-256h-1024v256z" glyph-name="Y" unicode="Y"/><glyph d="M0 768h256v256h256v256h256v256h256v256h256v512h-768v-256h-256v-256h-256v768h1792v-768h-256v-256h-256v-256h-256v-256h-256v-256h-256v-512h768v256h256v256h256v-768h-1792v768z" glyph-name="Z" unicode="Z"/><glyph d="M1024 256h512v-256h-1024v2560h1024v-256h-512v-2048z" glyph-name="bracketleft" unicode="["/><glyph d="M1536 256h-256v256h-256v256h-256v256h-256v256h-256v256h-256v768h256v-256h256v-256h256v-256h256v-256h256v-256h256v-256h256v-768h-256v256z" glyph-name="backslash" unicode="\"/><glyph d="M512 256h512v2048h-512v256h1024v-2560h-1024v256z" glyph-name="bracketright" unicode="]"/><glyph d="M1024 2560h-256v-256h-256v-256h-512v256h256v256h256v256h256v256h256v-256h256v-256h256v-256h256v-256h-512v256h-256v256z" glyph-name="asciicircum" unicode="^"/><glyph d="M0 -256h2048v-256h-2048v256z" glyph-name="underscore" unicode="_"/><glyph d="M1024 2304h-256v256h-256v256h512v-256h256v-256h256v-256h-512v256z" glyph-name="grave" unicode="`"/><glyph d="M1024 0h-768v256h-256v768h256v256h768v256h-768v256h1024v-256h256v-1280h256v-256h-512v256h-254l-2 2v766h-512v-768h512v-256z" glyph-name="a" unicode="a"/><glyph d="M1024 1536h-256v-1280h512v1024h-256v256zM768 1792h512v-256h256v-256h256v-1024h-256v-256h-1280v2304h-256v256h768v-768z" glyph-name="b" unicode="b"/><glyph d="M1280 1536h-768v-1280h768v256h512v-256h-256v-256h-1280v256h-256v1280h256v256h1280v-256h256v-256h-512v256z" glyph-name="c" unicode="c"/><glyph d="M1024 1536h-256v-256h-256v-1024h510l2 -2v-254h-768v256h-256v1024h256v256h256v256h512v512h-256v256h768v-2304h256v-256h-512v256h-256v1280z" glyph-name="d" unicode="d"/><glyph d="M512 1280h768v256h-768v-256zM256 1792h1280v-256h256v-512h-1280v-768h768v256h512v-256h-256v-256h-1280v256h-256v1280h256v256z" glyph-name="e" unicode="e"/><glyph d="M256 1536h256v768h256v256h768v-256h256v-512h-256v256h-256v256h-256v-768h256v-256h-256v-1024h256v-256h-1024v256h256v1024h-256v256z" glyph-name="f" unicode="f"/><glyph d="M1024 1534l2 2h254v256h512v-256h-256v-2048h-256v-256h-1024v256h-256v256h512v-256h512v512h-768v256h-256v1280h256v256h768v-256h-512v-1280h512v1278z" glyph-name="g" unicode="g"/><glyph d="M1024 1792h512v-256h256v-1536h-512v1536h-256v256zM768 0h-768v256h256v2048h-256v256h768v-1024h256v-256h-256v-1280z" glyph-name="h" unicode="h"/><glyph d="M768 2560h512v-512h-512v512zM512 1792h768v-1536h256v-256h-1024v256h256v1280h-256v256z" glyph-name="i" unicode="i"/><glyph d="M1280 2560h512v-512h-512v512zM1024 1792h768v-2304h-256v-256h-1024v256h-256v512h512v-512h512v2048h-256v256z" glyph-name="j" unicode="j"/><glyph d="M1024 1536h256v256h512v-256h-256v-256h-256v-512h256v-256h256v-512h-512v512h-256v256h-256v-768h-768v256h256v2048h-256v256h768v-1280h256v256z" glyph-name="k" unicode="k"/><glyph d="M512 2560h768v-2304h256v-256h-1024v256h256v2048h-256v256z" glyph-name="l" unicode="l"/><glyph d="M1280 1280h-256v-1024h-256v1024h-256v-1280h-512v1792h768v-256h256v256h512v-256h256v-1536h-512v1280z" glyph-name="m" unicode="m"/><glyph d="M256 1536h-256v256h512v-256h256v-1536h-512v1536zM768 1792h768v-256h256v-1536h-512v1536h-512v256z" glyph-name="n" unicode="n"/><glyph d="M1280 1536h-768v-1280h768v1280zM256 256h-256v1280h256v256h1280v-256h256v-1280h-256v-256h-1280v256z" glyph-name="o" unicode="o"/><glyph d="M768 1792h768v-256h256v-1280h-256v-256h-768v-512h256v-256h-1024v256h256v2048h-256v256h512v-256h254l2 -2v-1278h512v1280h-512v256z" glyph-name="p" unicode="p"/><glyph d="M1024 256v1278l2 2h254v256h512v-256h-256v-2048h256v-256h-1024v256h256v512h-768v256h-256v1280h256v256h768v-256h-512v-1280h512z" glyph-name="q" unicode="q"/><glyph d="M1024 1280h-256v-1024h256v-256h-1024v256h256v1280h-256v256h512v-256h256v256h768v-256h256v-512h-512v512h-256v-256z" glyph-name="r" unicode="r"/><glyph d="M1280 1536h-768v-256h256v-256h512v-256h256v-256h256v-256h-256v-256h-1280v256h-256v256h512v-256h768v256h-256v256h-512v256h-256v256h-256v256h256v256h1280v-256h256v-256h-512v256z" glyph-name="s" unicode="s"/><glyph d="M0 1792h512v512h256v256h256v-768h512v-256h-512v-1280h256v256h512v-256h-256v-256h-768v256h-256v1280h-512v256z" glyph-name="t" unicode="t"/><glyph d="M1024 1792h512v-1536h256v-256h-512v256h-256v1536zM0 1792h512v-1536h512v-256h-768v256h-256v1536z" glyph-name="u" unicode="u"/><glyph d="M1280 1792h512v-1280h-256v-256h-256v-256h-768v256h-256v256h-256v1280h512v-1280h256v-256h256v256h256v1280z" glyph-name="v" unicode="v"/><glyph d="M1536 0h-512v256h-256v-256h-512v256h-256v1536h512v-1280h256v768h256v-768h256v1280h512v-1536h-256v-256z" glyph-name="w" unicode="w"/><glyph d="M0 1792h512v-256h256v-256h256v256h256v256h512v-256h-256v-256h-256v-768h256v-256h256v-256h-512v256h-256v256h-256v-256h-256v-256h-512v256h256v256h256v768h-256v256h-256v256z" glyph-name="x" unicode="x"/><glyph d="M0 -512h1024v256h256v256h-1024v256h-256v1536h512v-1536h768v1536h512v-2048h-256v-256h-256v-256h-1280v256z" glyph-name="y" unicode="y"/><glyph d="M0 1792h1792v-256h-256v-256h-256v-256h-256v-256h-256v-256h-256v-256h768v256h512v-512h-1792v512h256v256h256v256h256v256h256v256h-512v-256h-512v512z" glyph-name="z" unicode="z"/><glyph d="M1024 2560h768v-256h-512v-768h-256v-256h256v-1024h512v-256h-768v256h-256v1024h-512v256h512v768h256v256z" glyph-name="braceleft" unicode="{"/><glyph d="M768 2560h512v-2560h-512v2560z" glyph-name="bar" unicode="|"/><glyph d="M256 256h512v1024h256v256h-256v768h-512v256h768v-256h256v-768h512v-256h-512v-1024h-256v-256h-768v256z" glyph-name="braceright" unicode="}"/><glyph d="M1280 2816h512v-256h-256v-256h-768v256h-256v-256h-512v256h256v256h768v-256h256v256z" glyph-name="asciitilde" unicode="~"/><glyph d="M1024 1536h-256v-256h-256v-768h768v768h-256v256zM1280 1536h256v-256h256v-1024h-1792v1024h256v256h256v256h256v256h256v-256h256v-256z" glyph-name="uni007F"/><glyph d="M1024 2560h512v-256h-512v256zM0 2560h512v-256h-512v256zM1024 1792h512v-1536h256v-256h-512v256h-256v1536zM0 1792h512v-1536h512v-256h-768v256h-256v1536z" glyph-name="uni0081"/><glyph d="M256 2816h512v-256h256v-256h256v-256h-512v256h-256v256h-256v256zM512 1792h768v-1536h256v-256h-1024v256h256v1280h-256v256z" glyph-name="uni008D"/><glyph d="M1280 2816h512v-256h-512v256zM0 2816h512v-256h-512v256zM1024 2048h-256v-256h-256v-512h768v512h-256v256zM1280 0v1024h-768v-1024h-512v1792h256v256h256v256h256v256h256v-256h256v-256h256v-256h256v-1792h-512z" glyph-name="uni008E"/><glyph d="M1024 2816h-256v-256h256v256zM1024 1792h-256v-256h-256v-256h768v256h-256v256zM1280 2048v-256h256v-256h256v-1536h-512v1024h-768v-1024h-512v1536h256v256h256v256h256v256h-256v256h-256v256h256v256h768v-256h256v-256h-256v-256h-256v-256h256z" glyph-name="uni008F"/><glyph d="M768 2816h256v256h512v-256h-256v-256h-512v256zM1024 1024h-256v-768h512v256h256v256h256v-768h-1792v256h256v1792h-256v256h1792v-768h-256v256h-256v256h-512v-768h256v256h256v-768h-256v256z" glyph-name="uni0090"/><glyph d="M256 1024h512v256h-512v256h512v256h-256v256h-256v512h512v-512h512v512h512v-512h-256v-256h-256v-256h512v-256h-512v-256h512v-256h-512v-768h-512v768h-512v256z" glyph-name="uni009D"/><glyph d="M1024 2560h-512v-512h512v512zM768 1280h256v256h256v256h-768v-1792h-512v2816h1280v-256h256v-512h-256v-256h256v-512h256v-256h-256v-768h256v-256h-512v256h-256v768h-256v256z" glyph-name="uni009E"/><glyph d="M768 2816h512v-256h-256v-256h-256v-256h-512v256h256v256h256v256zM1024 0h-768v256h-256v768h256v256h768v256h-768v256h1024v-256h256v-1280h256v-256h-512v256h-254l-2 2v766h-512v-768h512v-256z" glyph-name="nonbreakingspace"/><glyph d="M1024 2816h512v-256h-256v-256h-256v-256h-512v256h256v256h256v256zM512 1792h768v-1536h256v-256h-1024v256h256v1280h-256v256z" glyph-name="exclamdown" unicode="¡"/><glyph d="M768 2816h512v-256h-256v-256h-256v-256h-512v256h256v256h256v256zM1280 1536h-768v-1280h768v1280zM256 256h-256v1280h256v256h1280v-256h256v-1280h-256v-256h-1280v256z" glyph-name="cent" unicode="¢"/><glyph d="M256 2304h256v256h256v256h512v-256h-256v-256h-256v-256h-512v256zM1024 1792h512v-1536h256v-256h-512v256h-256v1536zM0 1792h512v-1536h512v-256h-768v256h-256v1536z" glyph-name="sterling" unicode="£"/><glyph d="M768 2304h-256v-256h-512v256h256v256h768v-256h256v256h512v-256h-256v-256h-768v256zM256 1536h-256v256h512v-256h256v-1536h-512v1536zM768 1792h768v-256h256v-1536h-512v1536h-512v256z" glyph-name="currency" unicode="¤"/><glyph d="M1280 3072h512v-256h-256v-256h-768v256h-256v-256h-512v256h256v256h768v-256h256v256zM1024 1024h-256v256h-256v-1280h-512v2304h512v-256h256v-256h256v-256h256v768h512v-2304h-512v768h-256v256z" glyph-name="yen" unicode="¥"/><glyph d="M768 1792h256v512h-256v-512zM256 1280h1536v-256h-1536v256zM512 1792h-256v512h256v256h1024v-768h256v-256h-1280v256z" glyph-name="brokenbar" unicode="¦"/><glyph d="M1024 2304h-256v-512h256v512zM256 1280h1280v-256h-1280v256zM512 1792h-256v512h256v256h768v-256h256v-512h-256v-256h-768v256z" glyph-name="section" unicode="§"/><glyph d="M512 2560h512v-512h-512v512zM512 1792h512v-512h-256v-256h-256v-768h768v512h512v-512h-256v-256h-1280v256h-256v768h256v256h256v512z" glyph-name="dieresis" unicode="¨"/><glyph d="M512 256h-512v1280h1792v-256h-1280v-1024z" glyph-name="copyright" unicode="©"/><glyph d="M0 1536h1792v-1280h-512v1024h-1280v256z" glyph-name="ordfeminine" unicode="ª"/><glyph d="M512 -256h256v256h256v256h256v256h-512v256h-256v-256h-256v-256h-256v512h256v256h256v256h256v256h-512v768h-256v256h256v256h512v-1280h256v256h256v256h256v256h256v-512h-256v-256h-256v-256h-256v-256h-256v-256h768v-256h256v-256h-256v-256h-256v-256h512v-256 h-1280v256z" glyph-name="guillemotleft" unicode="«"/><glyph d="M1536 256v256h-256v-256h256zM1792 -512h-512v512h-768v256h256v256h256v256h256v256h512v-768h256v-256h-256v-512zM768 768h-256v-256h-256v-256h-256v512h256v256h256v256h256v256h-512v768h-256v256h256v256h512v-1280h256v256h256v256h256v256h256v-512h-256v-256 h-256v-256h-256v-256h-256v-256z" glyph-name="logicalnot" unicode="¬"/><glyph d="M768 2560h512v-512h-512v512zM512 1024h256v768h512v-768h256v-768h-256v-256h-512v256h-256v768z" glyph-name="uni00AD" unicode="­"/><glyph d="M1024 1536h256v256h512v-256h-256v-256h-256v-256h256v-256h256v-256h-512v256h-254l-2 2v254h-254l-2 2v254h256v256zM1024 1538l-2 -2h-254v-256h-256v-256h256v-256h256v-256h-512v256h-256v256h-256v256h256v256h256v256h512v-254z" glyph-name="registered" unicode="®"/><glyph d="M768 1792h512v-256h256v-256h256v-256h-256v-256h-256v-256h-512v256h256v256h256v256h-256v256h-254l-2 2v254zM768 1280h256v-254l-2 -2h-254v-254l-2 -2h-254v-256h-512v256h256v256h256v256h-256v256h-256v256h512v-256h256v-256z" glyph-name="macron" unicode="¯"/><glyph d="M1792 0h256v-256h-256v256zM1792 1024h256v-256h-256v256zM1792 2048h256v-256h-256v256zM1792 2560h256v-256h-256v256zM1792 1536h256v-256h-256v256zM1792 512h256v-256h-256v256zM1792 -512h256v-256h-256v256zM1792 3072h256v-256h-256v256zM1280 -256h256v-256 h-256v256zM1280 768h256v-256h-256v256zM1280 1792h256v-256h-256v256zM1280 2304h256v-256h-256v256zM1280 1280h256v-256h-256v256zM1280 256h256v-256h-256v256zM1280 -768h256v-256h-256v256zM1280 2816h256v-256h-256v256zM768 0h256v-256h-256v256zM768 1024h256v-256 h-256v256zM768 2048h256v-256h-256v256zM768 2560h256v-256h-256v256zM768 1536h256v-256h-256v256zM768 512h256v-256h-256v256zM768 -512h256v-256h-256v256zM768 3072h256v-256h-256v256zM256 -256h256v-256h-256v256zM256 768h256v-256h-256v256zM256 1792h256v-256 h-256v256zM256 2304h256v-256h-256v256zM256 1280h256v-256h-256v256zM256 256h256v-256h-256v256zM256 -768h256v-256h-256v256zM256 2816h256v-256h-256v256z" glyph-name="ltshade" unicode="°"/><glyph d="M1538 -768h254l2 -2v-254h-256v256zM1794 -512h254l2 -2l-2 -254h-254v256zM1026 -768h254l2 -2v-254h-256v256zM1282 -512h254l2 -2l-2 -254h-254v256zM514 -768h254l2 -2v-254h-256v256zM770 -512h254l2 -2l-2 -254h-254v256zM0 -768h254l2 -2v-254h-256v256zM256 -512 h254l2 -2l-2 -254h-254v256zM1538 -256h254l2 -2v-254h-256v256zM1794 0h254l2 -2l-2 -254h-254v256zM1026 -256h254l2 -2v-254h-256v256zM1282 0h254l2 -2l-2 -254h-254v256zM514 -256h254l2 -2v-254h-256v256zM770 0h254l2 -2l-2 -254h-254v256zM0 -256h254l2 -2v-254 h-256v256zM256 0h254l2 -2l-2 -254h-254v256zM1538 256h254l2 -2v-254h-256v256zM1794 512h254l2 -2l-2 -254h-254v256zM1026 256h254l2 -2v-254h-256v256zM1282 512h254l2 -2l-2 -254h-254v256zM514 256h254l2 -2v-254h-256v256zM770 512h254l2 -2l-2 -254h-254v256zM0 256 h254l2 -2v-254h-256v256zM256 512h254l2 -2l-2 -254h-254v256zM1538 768h254l2 -2v-254h-256v256zM1794 1024h254l2 -2l-2 -254h-254v256zM1026 768h254l2 -2v-254h-256v256zM1282 1024h254l2 -2l-2 -254h-254v256zM514 768h254l2 -2v-254h-256v256zM770 1024h254l2 -2 l-2 -254h-254v256zM0 768h254l2 -2v-254h-256v256zM256 1024h254l2 -2l-2 -254h-254v256zM1538 1280h254l2 -2v-254h-256v256zM1794 1536h254l2 -2l-2 -254h-254v256zM1026 1280h254l2 -2v-254h-256v256zM1282 1536h254l2 -2l-2 -254h-254v256zM514 1280h254l2 -2v-254h-256 v256zM770 1536h254l2 -2l-2 -254h-254v256zM0 1280h254l2 -2v-254h-256v256zM256 1536h254l2 -2l-2 -254h-254v256zM1538 1792h254l2 -2v-254h-256v256zM1794 2048h254l2 -2l-2 -254h-254v256zM1026 1792h254l2 -2v-254h-256v256zM1282 2048h254l2 -2l-2 -254h-254v256z M514 1792h254l2 -2v-254h-256v256zM770 2048h254l2 -2l-2 -254h-254v256zM0 1792h254l2 -2v-254h-256v256zM256 2048h254l2 -2l-2 -254h-254v256zM1538 2304h254l2 -2v-254h-256v256zM1794 2560h254l2 -2l-2 -254h-254v256zM1026 2304h254l2 -2v-254h-256v256zM1282 2560 h254l2 -2l-2 -254h-254v256zM514 2304h254l2 -2v-254h-256v256zM770 2560h254l2 -2l-2 -254h-254v256zM0 2304h254l2 -2v-254h-256v256zM256 2560h254l2 -2l-2 -254h-254v256zM1536 2816h254l2 -2v-254h-256v256zM1792 3072h256v-256h-256v256zM1024 2816h254l2 -2v-254 h-256v256zM1280 3072h256v-256h-256v256zM512 2816h254l2 -2v-254h-256v256zM768 3072h256v-256h-256v256zM0 2816h254l2 -2v-254h-256v256zM256 3072h256v-256h-256v256z" glyph-name="plusminus" unicode="±"/><glyph d="M1792 2304v256h-256v-256h256zM1792 1280v256h-256v-256h256zM1792 256v256h-256v-256h256zM1792 -768v256h-256v-256h256zM1280 -512v256h-256v-256h256zM1280 512v256h-256v-256h256zM1280 1536v256h-256v-256h256zM1280 2560v256h-256v-256h256zM768 768v256h-256 v-256h256zM768 -256v256h-256v-256h256zM768 1792v256h-256v-256h256zM768 2304v256h-256v-256h256zM768 -768v256h-256v-256h256zM768 256v256h-256v-256h256zM768 1280v256h-256v-256h256zM1280 2048v256h-256v-256h256zM1280 1024v256h-256v-256h256zM1280 0v256h-256 v-256h256zM1792 -256v256h-256v-256h256zM1792 768v256h-256v-256h256zM1792 1792v256h-256v-256h256zM1792 2816v256h256v-4096h-768v256h-256v-256h-768v256h-256v256h256v256h-256v256h256v256h-256v256h256v256h-256v256h256v256h-256v256h256v256h-256v256h256v256 h-256v256h256v256h-256v256h512v-256h256v256h768v-256h256z" glyph-name="twosuperior" unicode="²"/><glyph d="M768 3072h512v-4096h-512v4096z" glyph-name="threesuperior" unicode="³"/><glyph d="M0 1280h768v1792h512v-4096h-512v2048h-768v256z" glyph-name="acute" unicode="´"/><glyph d="M0 1792h768v1280h512v-4096h-512v2048h-768v256h768v256h-768v256z" glyph-name="mu" unicode="µ"/><glyph d="M1280 3072h512v-4096h-512v4096zM0 1280h512v1792h512v-4096h-512v2048h-512v256z" glyph-name="paragraph" unicode="¶"/><glyph d="M1280 1024h-256v-2048h-512v2048h-512v256h1792v-2304h-512v2048z" glyph-name="periodcentered" unicode="·"/><glyph d="M1280 1024h-256v-2048h-512v2048h-512v256h1792v-2304h-512v2048z" glyph-name="periodcentered" unicode="∙"/><glyph d="M0 1792h1280v-2816h-512v2048h-768v256h768v256h-768v256z" glyph-name="cedilla" unicode="¸"/><glyph d="M0 1792h512v1280h512v-1536h-1024v256zM0 1280h1024v-2304h-512v2048h-512v256zM1280 3072h512v-4096h-512v4096z" glyph-name="onesuperior" unicode="¹"/><glyph d="M1280 3072h512v-4096h-512v4096zM512 3072h512v-4096h-512v4096z" glyph-name="ordmasculine" unicode="º"/><glyph d="M0 1280h1024v-2304h-512v2048h-512v256zM0 1792h1792v-2816h-512v2560h-1280v256z" glyph-name="guillemotright" unicode="»"/><glyph d="M0 1792h512v1280h512v-1536h-1024v256zM0 1280h1280v1792h512v-2048h-1792v256z" glyph-name="onequarter" unicode="¼"/><glyph d="M0 1280h512v1792h512v-1792h256v1792h512v-2048h-1792v256z" glyph-name="onehalf" unicode="½"/><glyph d="M0 1792h768v1280h512v-2048h-1280v256h768v256h-768v256z" glyph-name="threequarters" unicode="¾"/><glyph d="M0 1280h1280v-2304h-512v2048h-768v256z" glyph-name="questiondown" unicode="¿"/><glyph d="M768 3072h512v-1792h1024v-256h-1536v2048z" glyph-name="Agrave" unicode="À"/><glyph d="M0 1280h768v1792h512v-1792h1024v-256h-2304v256z" glyph-name="Aacute" unicode="Á"/><glyph d="M0 1280h2304v-256h-1024v-2048h-512v2048h-768v256z" glyph-name="Acircumflex" unicode="Â"/><glyph d="M1280 -1024h-512v4096h512v-1792h1024v-256h-1024v-2048z" glyph-name="Atilde" unicode="Ã"/><glyph d="M0 1280h2304v-256h-2304v256z" glyph-name="SF100000" unicode="Ä"/><glyph d="M0 1280h768v1792h512v-1792h1024v-256h-1024v-2048h-512v2048h-768v256z" glyph-name="Aring" unicode="Å"/><glyph d="M1280 1280h1024v-256h-1024v-2048h-512v4096h512v-1280h1024v-256h-1024v-256z" glyph-name="AE" unicode="Æ"/><glyph d="M512 3072h512v-4096h-512v4096zM1792 -1024h-512v4096h512v-1792h512v-256h-512v-2048z" glyph-name="Ccedilla" unicode="Ç"/><glyph d="M1280 3072h512v-1280h512v-256h-1024v1536zM512 3072h512v-1792h1280v-256h-1792v2048z" glyph-name="Egrave" unicode="È"/><glyph d="M1280 0v1280h1024v-256h-512v-2048h-512v1024zM512 1792h1792v-256h-1280v-2560h-512v2816z" glyph-name="Eacute" unicode="É"/><glyph d="M0 1280h2304v-256h-2304v256zM1792 3072v-1280h512v-256h-1024v1536h512zM512 3072h512v-1536h-1024v256h512v1280z" glyph-name="Ecircumflex" unicode="Ê"/><glyph d="M0 1792h2304v-256h-2304v256zM1280 1280h1024v-256h-512v-2048h-512v2304zM0 1280h1024v-2304h-512v2048h-512v256z" glyph-name="Edieresis" unicode="Ë"/><glyph d="M1280 3072h512v-1280h512v-256h-1024v1536zM1280 1280h1024v-256h-512v-2048h-512v2304zM512 3072h512v-4096h-512v4096z" glyph-name="Igrave" unicode="Ì"/><glyph d="M0 1280h2304v-256h-2304v256zM0 1792h2304v-256h-2304v256z" glyph-name="Iacute" unicode="Í"/><glyph d="M0 1792h512v1280h512v-1536h-1024v256zM1280 3072h512v-1280h512v-256h-1024v1536zM2304 1280v-256h-512v-2048h-512v2304h1024zM0 1280h1024v-2304h-512v2048h-512v256z" glyph-name="Icircumflex" unicode="Î"/><glyph d="M0 1280h2304v-256h-2304v256zM0 1792h768v768h512v-768h1024v-256h-2304v256z" glyph-name="Idieresis" unicode="Ï"/><glyph d="M0 1280h512v1792h512v-1792h256v1792h512v-1792h512v-256h-2304v256z" glyph-name="Eth" unicode="Ð"/><glyph d="M0 1792h2304v-256h-2304v256zM0 1280h2304v-256h-1024v-2048h-512v2048h-768v256z" glyph-name="Ntilde" unicode="Ñ"/><glyph d="M1280 1024h-256v-2048h-512v2048h-512v256h2304v-256h-512v-2048h-512v2048z" glyph-name="Ograve" unicode="Ò"/><glyph d="M512 3072h512v-1792h256v1792h512v-1792h512v-256h-1792v2048z" glyph-name="Oacute" unicode="Ó"/><glyph d="M768 3072h512v-1280h1024v-256h-1024v-256h1024v-256h-1536v2048z" glyph-name="Ocircumflex" unicode="Ô"/><glyph d="M2304 1792v-256h-1024v-256h1024v-256h-1024v-2048h-512v2816h1536z" glyph-name="Otilde" unicode="Õ"/><glyph d="M1280 1024h-256v-2048h-512v2304h1792v-256h-512v-2048h-512v2048z" glyph-name="Odieresis" unicode="Ö"/><glyph d="M1280 1024h-256v-2048h-512v2048h-512v256h512v1792h512v-1792h256v1792h512v-1792h512v-256h-512v-2048h-512v2048z" glyph-name="multiply" unicode="×"/><glyph d="M0 1792h768v1280h512v-1280h1024v-256h-1024v-256h1024v-256h-1024v-2048h-512v2048h-768v256h768v256h-768v256z" glyph-name="Oslash" unicode="Ø"/><glyph d="M0 1280h768v1792h512v-2048h-1280v256z" glyph-name="Ugrave" unicode="Ù"/><glyph d="M768 1280h1536v-256h-1024v-2048h-512v2304z" glyph-name="Uacute" unicode="Ú"/><glyph d="M0 3072h2304v-4096h-2304v4096z" glyph-name="Ucircumflex" unicode="Û"/><glyph d="M0 1280h2304v-2304h-2304v2304z" glyph-name="Udieresis" unicode="Ü"/><glyph d="M0 3072h1024v-4096h-1024v4096z" glyph-name="Yacute" unicode="Ý"/><glyph d="M1024 3072h1280v-4096h-1280v4096z" glyph-name="Thorn" unicode="Þ"/><glyph d="M0 3072h2304v-1792h-2304v1792z" glyph-name="germandbls" unicode="ß"/><glyph d="M768 1536h-256v-1280h256v1280zM1280 256h-256v-256h-768v256h-256v1280h256v256h768v-256h256v256h512v-256h-256v-256h-256v-768h256v-256h256v-256h-512v256z" glyph-name="agrave" unicode="à"/><glyph d="M1024 256h256v768h-256v256h-256v256h256v768h-512v-2304h-512v2304h256v256h1024v-256h256v-768h-256v-256h256v-256h256v-768h-256v-256h-512v256z" glyph-name="aacute" unicode="á"/><glyph d="M512 0h-512v2560h1792v-768h-512v512h-768v-2304z" glyph-name="acircumflex" unicode="â"/><glyph d="M1024 1536h-256v-1536h-512v1536h-256v256h1792v-256h-256v-1536h-512v1536z" glyph-name="atilde" unicode="ã"/><glyph d="M0 512h256v256h256v256h256v512h-256v256h-256v256h-256v512h1792v-512h-512v256h-768v-256h256v-256h256v-256h256v-512h-256v-256h-256v-256h-256v-256h768v256h512v-512h-1792v512z" glyph-name="adieresis" unicode="ä"/><glyph d="M768 1536h-256v-1280h256v1280zM0 1536h256v256h1536v-256h-512v-1280h-256v-256h-768v256h-256v1280z" glyph-name="aring" unicode="å"/><glyph d="M0 -512h256v2304h512v-1536h512v1536h512v-1536h-256v-256h-768v-512h-256v-256h-512v256z" glyph-name="ae" unicode="æ"/><glyph d="M768 1792h-256v-256h-512v256h256v256h768v-256h256v256h512v-256h-256v-256h-256v-1536h-512v1792z" glyph-name="ccedilla" unicode="ç"/><glyph d="M1280 1792h-512v-1024h512v1024zM256 1792h256v256h256v256h-512v256h1536v-256h-512v-256h256v-256h256v-1024h-256v-256h-256v-256h512v-256h-1536v256h512v256h-256v256h-256v1024z" glyph-name="egrave" unicode="è"/><glyph d="M512 1536h768v512h-256v256h-256v-256h-256v-512zM512 512h256v-256h256v256h256v768h-768v-768zM512 256h-256v256h-256v1536h256v256h256v256h768v-256h256v-256h256v-1536h-256v-256h-256v-256h-768v256z" glyph-name="eacute" unicode="é"/><glyph d="M1024 2304h-256v-256h-256v-768h256v-1280h-768v256h256v1024h-256v768h256v256h256v256h768v-256h256v-256h256v-768h-256v-1024h256v-256h-768v1280h256v768h-256v256z" glyph-name="ecircumflex" unicode="ê"/><glyph d="M1280 1280h-512v-1024h512v1024zM768 2560h1024v-256h-768v-256h256v-256h256v-256h256v-1280h-256v-256h-1024v256h-256v1024h256v256h512v256h-256v256h-256v256h256v256z" glyph-name="edieresis" unicode="ë"/><glyph d="M768 1536h-256v-768h256v768zM1536 1536h-256v-768h256v768zM1792 512h-1536v256h-256v768h256v256h1536v-256h512v-768h-512v-256z" glyph-name="igrave" unicode="ì"/><glyph d="M768 1536h-256v-512h256v512zM1536 1536h-256v-512h-256v-256h512v768zM1792 768v-256h-1024v-256h-256v-256h-512v256h256v512h-256v768h256v256h1024v256h256v256h768v-256h-512v-512h512v-768h-512z" glyph-name="iacute" unicode="í"/><glyph d="M768 512h256v-256h512v-256h-768v256h-256v256h-256v1536h256v256h256v256h768v-256h-512v-256h-256v-512h768v-256h-768v-768z" glyph-name="icircumflex" unicode="î"/><glyph d="M1280 2048h-768v-2048h-512v2048h256v256h1280v-256h256v-2048h-512v2048z" glyph-name="idieresis" unicode="ï"/><glyph d="M0 1280h1792v-256h-1792v256zM0 2048h1792v-256h-1792v256zM0 512h1792v-256h-1792v256z" glyph-name="eth" unicode="ð"/><glyph d="M256 256h1536v-256h-1536v256zM256 1536h512v512h512v-512h512v-256h-512v-512h-512v512h-512v256z" glyph-name="ntilde" unicode="ñ"/><glyph d="M256 256h1536v-256h-1536v256zM512 2304h512v-256h256v-256h256v-256h256v-256h-256v-256h-256v-256h-256v-256h-512v256h256v256h256v256h256v256h-256v256h-256v256h-256v256z" glyph-name="ograve" unicode="ò"/><glyph d="M256 256h1536v-256h-1536v256zM1024 2304h512v-256h-256v-256h-256v-256h-256v-256h256v-256h256v-256h256v-256h-512v256h-256v256h-256v256h-256v256h256v256h256v256h256v256z" glyph-name="oacute" unicode="ó"/><glyph d="M1536 2304h-256v-3328h-512v3328h256v256h768v-256h256v-512h-512v512z" glyph-name="ocircumflex" unicode="ô"/><glyph d="M0 512h512v-512h256v3072h512v-3072h-256v-256h-768v256h-256v512z" glyph-name="otilde" unicode="õ"/><glyph d="M768 768h512v-256h-512v256zM768 1792h512v-256h-512v256zM256 1280h1536v-256h-1536v256z" glyph-name="odieresis" unicode="ö"/><glyph d="M1280 1792h512v-256h-256v-256h-768v256h-256v-256h-512v256h256v256h768v-256h256v256zM1280 1024h512v-256h-256v-256h-768v256h-256v-256h-512v256h256v256h768v-256h256v256z" glyph-name="divide" unicode="÷"/><glyph d="M1024 2560h-256v-512h256v512zM512 2048h-256v512h256v256h768v-256h256v-512h-256v-256h-768v256z" glyph-name="oslash" unicode="ø"/><glyph d="M768 1280h512v-512h-512v512z" glyph-name="ugrave" unicode="ù"/><glyph d="M768 1280h512v-256h-512v256z" glyph-name="uacute" unicode="ú"/><glyph d="M0 1280h768v-768h256v2304h1024v-256h-512v-2560h-768v256h-256v256h-256v512h-256v256z" glyph-name="ucircumflex" unicode="û"/><glyph d="M1024 2816h512v-256h256v-1280h-512v1280h-256v256zM512 2560h-256v256h512v-256h256v-1280h-512v1280z" glyph-name="udieresis" unicode="ü"/><glyph d="M256 1536h256v256h256v256h256v256h256v256h-512v-256h-512v256h256v256h1024v-256h256v-256h-256v-256h-256v-256h-256v-256h512v256h256v-512h-1536v256z" glyph-name="yacute" unicode="ý"/><glyph d="M256 2048h1536v-1792h-1536v1792z" glyph-name="uni25A0" unicode="þ"/><glyph glyph-name="ydieresis" unicode="ÿ"/><glyph d="M1280 2304h-512v-256h-512v256h256v256h256v256h512v-256h256v-256h256v-256h-512v256zM512 1792h768v-1536h256v-256h-1024v256h256v1280h-256v256z" glyph-name="OE" unicode="Œ"/><glyph d="M1024 2560h-256v-768h256v-256h-256v-1280h512v256h512v-256h-256v-256h-1536v512h256v1024h-256v256h256v768h256v256h768v-256h256v-512h-256v256h-256v256z" glyph-name="oe" unicode="œ"/><glyph d="M512 1280h768v256h-768v-256zM768 2304h-256v256h-256v256h512v-256h256v-256h256v-256h-512v256zM256 1792h1280v-256h256v-512h-1280v-768h768v256h512v-256h-256v-256h-1280v256h-256v1280h256v256z" glyph-name="Scaron" unicode="Š"/><glyph d="M0 2816h512v-256h-512v256zM1280 2816h512v-256h-512v256zM0 2304h512v-2048h768v2048h512v-2048h-256v-256h-1280v256h-256v2048z" glyph-name="scaron" unicode="š"/><glyph d="M256 1536h512v1024h256v256h768v-256h256v-256h-512v256h-256v-1024h512v-256h-512v-1024h-256v-256h-768v256h-256v256h512v-256h256v1024h-512v256z" glyph-name="Ydieresis" unicode="Ÿ"/><glyph d="M256 2304h256v256h256v256h256v-256h256v-256h256v-256h-512v256h-256v-256h-512v256zM1024 0h-768v256h-256v768h256v256h768v256h-768v256h1024v-256h256v-1280h256v-256h-512v256h-254l-2 2v766h-512v-768h512v-256z" glyph-name="florin" unicode="ƒ"/><glyph d="M512 1280h768v256h-768v-256zM768 2816h256v-256h256v-256h256v-256h-512v256h-256v-256h-512v256h256v256h256v256zM256 1792h1280v-256h256v-512h-1280v-768h768v256h512v-256h-256v-256h-1280v256h-256v1280h256v256z" glyph-name="circumflex" unicode="ˆ"/><glyph d="M0 2560h512v-256h-512v256zM1280 2560h512v-256h-512v256zM0 -512h1024v256h256v256h-1024v256h-256v1536h512v-1536h768v1536h512v-2048h-256v-256h-256v-256h-1280v256z" glyph-name="tilde" unicode="˜"/><glyph d="M1024 2304h-512v-256h-512v256h256v256h256v256h512v-256h256v-256h256v-256h-512v256zM1024 1792h512v-1536h256v-256h-512v256h-256v1536zM0 1792h512v-1536h512v-256h-768v256h-256v1536z" glyph-name="endash" unicode="–"/><glyph d="M256 2816h512v-256h256v-256h256v-256h-512v256h-256v256h-256v256zM1024 1792h512v-1536h256v-256h-512v256h-256v1536zM0 1792h512v-1536h512v-256h-768v256h-256v1536z" glyph-name="emdash" unicode="—"/><glyph d="M1024 1024h256v512h-254l-2 2v254h512v-256h256v-768h-512v-512h512v-256h-768v256h-254l-2 2v510h-256v-512h256v-256h-512v256h-256v512h256v256h256v512h-512v256h768v-256h256v-512z" glyph-name="quoteleft" unicode="‘"/><glyph d="M512 2048h512v768h-256v-256h-256v-512zM1024 1792h-512v-1792h-512v2560h256v256h256v256h1280v-256h-256v-768h256v-256h-256v-1536h256v-256h-768v1792z" glyph-name="quoteright" unicode="’"/><glyph d="M512 1280h768v256h-768v-256zM768 2560h256v256h512v-256h-256v-256h-256v-256h-512v256h256v256zM256 1792h1280v-256h256v-512h-1280v-768h768v256h512v-256h-256v-256h-1280v256h-256v1280h256v256z" glyph-name="quotesinglbase" unicode="‚"/><glyph d="M1024 2304h-256v-256h-512v256h256v256h256v256h256v-256h256v-256h256v-256h-512v256zM1280 1536h-768v-1280h768v1280zM256 256h-256v1280h256v256h1280v-256h256v-1280h-256v-256h-1280v256z" glyph-name="quotedblleft" unicode="“"/><glyph d="M1280 2560h512v-256h-512v256zM0 2560h512v-256h-512v256zM1280 1536h-768v-1280h768v1280zM256 256h-256v1280h256v256h1280v-256h256v-1280h-256v-256h-1280v256z" glyph-name="quotedblright" unicode="”"/><glyph d="M1024 2560h512v-256h-512v256zM0 2560h512v-256h-512v256zM1024 0h-768v256h-256v768h256v256h768v256h-768v256h1024v-256h256v-1280h256v-256h-512v256h-254l-2 2v766h-512v-768h512v-256z" glyph-name="quotedblbase" unicode="„"/><glyph d="M1024 2560h-256v-256h256v256zM256 2560h256v256h768v-256h256v-256h-256v-256h-768v256h-256v256zM1024 0h-768v256h-256v768h256v256h768v256h-768v256h1024v-256h256v-1280h256v-256h-512v256h-254l-2 2v766h-512v-768h512v-256z" glyph-name="dagger" unicode="†"/><glyph d="M256 -256h512v256h-512v256h-256v1280h256v256h1280v-256h256v-256h-512v256h-768v-1280h768v256h512v-256h-256v-256h-256v-256h-256v-256h-768v256z" glyph-name="daggerdbl" unicode="‡"/><glyph d="M256 2816h512v-256h256v-256h256v-256h-512v256h-256v256h-256v256zM1280 1536h-768v-1280h768v1280zM256 256h-256v1280h256v256h1280v-256h256v-1280h-256v-256h-1280v256z" glyph-name="bullet" unicode="•"/><glyph d="M768 2304h-256v256h-256v256h512v-256h256v-256h256v-256h-512v256zM1024 0h-768v256h-256v768h256v256h768v256h-768v256h1024v-256h256v-1280h256v-256h-512v256h-254l-2 2v766h-512v-768h512v-256z" glyph-name="ellipsis" unicode="…"/><glyph d="M1280 2560h512v-256h-512v256zM0 2560h512v-256h-512v256zM512 1280h768v256h-768v-256zM256 1792h1280v-256h256v-512h-1280v-768h768v256h512v-256h-256v-256h-1280v256h-256v1280h256v256z" glyph-name="perthousand" unicode="‰"/><glyph d="M256 2560h512v-256h-512v256zM1280 2560h512v-256h-512v256zM512 1792h768v-1536h256v-256h-1024v256h256v1280h-256v256z" glyph-name="guilsinglleft" unicode="‹"/><glyph d="M1280 2048h-768v-1280h768v256h512v-256h-256v-256h-256v-512h-512v512h-512v256h-256v1280h256v256h512v512h512v-512h256v-256h256v-256h-512v256z" glyph-name="guilsinglright" unicode="›"/><glyph d="M256 -256h512v256h-256v256h-256v256h-256v1536h256v256h256v256h1024v-256h256v-512h-256v256h-256v256h-512v-256h-256v-1536h256v-256h512v256h256v256h256v-512h-256v-256h-256v-256h-256v-256h-768v256z" glyph-name="Euro" unicode="€"/><glyph d="M1280 2816h512v-256h-512v256zM0 2816h512v-256h-512v256zM1280 2048h-768v-1792h768v1792zM0 2048h256v256h1280v-256h256v-1792h-256v-256h-1280v256h-256v1792z" glyph-name="trademark" unicode="™"/></font>
</defs>
</svg>
